<svg xmlns="http://www.w3.org/2000/svg" viewBox="0 0 680 460" fill="none">
  <rect width="680" height="460" rx="12" fill="#0a1628"/>
  <rect width="680" height="36" rx="12" fill="#152238"/>
  <rect width="680" height="2" y="34" fill="#152238"/>
  <circle cx="20" cy="18" r="6" fill="#E63946"/>
  <circle cx="40" cy="18" r="6" fill="#FFB703"/>
  <circle cx="60" cy="18" r="6" fill="#2DC653"/>
  <text x="340" y="23" font-family="Arial, sans-serif" font-size="12" fill="#90E0EF" text-anchor="middle">ccode doctor</text>

  <text font-family="Menlo, Monaco, Consolas, monospace" font-size="13">
    <tspan x="24" y="64" fill="#00B4D8">  --|</tspan><tspan fill="#e2e8f0" font-weight="bold"> Diagnostico del Proyecto</tspan>
    <tspan x="24" y="80" fill="#00B4D8">    |---------------------------------------------</tspan>

    <tspan x="24" y="108" fill="#e2e8f0" font-weight="bold">  Archivos de contexto</tspan>
    <tspan x="24" y="128" fill="#2DC653">  [ok] Configuracion del proyecto</tspan>
    <tspan x="24" y="146" fill="#2DC653">  [ok] Estado del workflow</tspan>
    <tspan x="24" y="164" fill="#2DC653">  [ok] Documentacion del proyecto</tspan>
    <tspan x="24" y="182" fill="#2DC653">  [ok] Arquitectura</tspan>
    <tspan x="24" y="200" fill="#2DC653">  [ok] Reglas de desarrollo</tspan>
    <tspan x="24" y="218" fill="#2DC653">  [ok] Checklist de tareas</tspan>
    <tspan x="24" y="236" fill="#FFB703">  [!!] Historial (memory.md) -- existe pero esta vacio</tspan>

    <tspan x="24" y="266" fill="#e2e8f0" font-weight="bold">  Proveedor de IA</tspan>
    <tspan x="24" y="286" fill="#2DC653">  [ok] Configurado: claude (claude-sonnet-4)</tspan>
    <tspan x="24" y="304" fill="#2DC653">  [ok] Conexion activa</tspan>

    <tspan x="24" y="334" fill="#e2e8f0" font-weight="bold">  Tareas</tspan>
    <tspan x="24" y="354" fill="#2DC653">  [ok] 8 tareas en total</tspan>
    <tspan x="24" y="372" fill="#2DC653">  [ok] 3 completadas</tspan>
    <tspan x="24" y="390" fill="#90E0EF">  [..] 1 en progreso</tspan>
    <tspan x="24" y="408" fill="#FFB703">  [!!] 4 pendientes</tspan>

    <tspan x="24" y="436" fill="#6b7280">  ---------------------------------------------</tspan>
    <tspan x="24" y="454" fill="#FFB703">  [!!] 1 problema encontrado</tspan>
  </text>
</svg>
